<?xml version="1.0" encoding="utf-8"?>
<!-- Generator: Adobe Illustrator 19.1.0, SVG Export Plug-In . SVG Version: 6.00 Build 0)  -->
<svg version="1.1" id="Layer_1" xmlns="http://www.w3.org/2000/svg" xmlns:xlink="http://www.w3.org/1999/xlink" x="0px" y="0px"
	 viewBox="92.6 218.2 248 74.6" style="enable-background:new 92.6 218.2 248 74.6;" xml:space="preserve">
<style type="text/css">
	.st0{fill:#FFFFFF;}
</style>
<g>
	<g>
		<path class="st0" d="M130.7,239.6c0,6.6-1.7,11.8-5,15.6c-3.4,3.8-8,5.7-14,5.7c-6.1,0-10.8-1.9-14.1-5.6c-3.3-3.7-5-9-5-15.8
			c0-6.7,1.7-12,5-15.7s8-5.6,14.2-5.6c5.9,0,10.6,1.9,13.9,5.7C129,227.8,130.7,233,130.7,239.6z M97.7,239.6
			c0,5.6,1.2,9.9,3.6,12.8c2.4,2.9,5.9,4.3,10.4,4.3c4.6,0,8.1-1.4,10.4-4.3s3.5-7.1,3.5-12.8c0-5.6-1.2-9.8-3.5-12.7
			s-5.8-4.3-10.4-4.3c-4.6,0-8.1,1.4-10.5,4.3C98.9,229.9,97.7,234.1,97.7,239.6z"/>
		<path class="st0" d="M160.5,260.4v-20.1c0-2.5-0.6-4.4-1.7-5.7s-3-1.9-5.4-1.9c-3.2,0-5.6,0.9-7.1,2.6S144,240,144,244v16.3h-4.7
			v-31h3.8l0.8,4.2h0.2c1-1.5,2.3-2.7,4-3.6c1.7-0.8,3.7-1.3,5.8-1.3c3.7,0,6.6,0.9,8.4,2.7c1.9,1.8,2.8,4.7,2.8,8.7v20.2h-4.6
			L160.5,260.4L160.5,260.4z"/>
		<path class="st0" d="M187.9,261c-4.6,0-8.2-1.4-10.9-4.2c-2.7-2.8-4-6.7-4-11.6c0-5,1.2-9,3.7-11.9s5.8-4.4,9.9-4.4
			c3.9,0,7,1.3,9.2,3.8c2.3,2.6,3.4,5.9,3.4,10.1v3h-21.4c0.1,3.6,1,6.4,2.8,8.3c1.7,1.9,4.2,2.8,7.4,2.8c3.3,0,6.6-0.7,9.9-2.1v4.2
			c-1.7,0.7-3.2,1.2-4.7,1.5C191.8,260.8,190,261,187.9,261z M186.7,232.7c-2.5,0-4.5,0.8-6,2.4c-1.5,1.6-2.4,3.9-2.6,6.7h16.2
			c0-3-0.7-5.2-2-6.8C191,233.5,189.1,232.7,186.7,232.7z"/>
		<path class="st0" d="M220.8,260.4H216v-37.1h-13.1V219h31v4.3h-13.1V260.4z"/>
		<path class="st0" d="M253.6,228.8c1.4,0,2.6,0.1,3.7,0.3l-0.7,4.4c-1.3-0.3-2.4-0.4-3.4-0.4c-2.5,0-4.7,1-6.4,3.1
			c-1.8,2-2.7,4.6-2.7,7.6v16.7h-4.7v-31h3.9l0.5,5.7h0.2c1.2-2,2.5-3.6,4.2-4.7C249.9,229.3,251.7,228.8,253.6,228.8z"/>
		<path class="st0" d="M267.5,229.4v20.1c0,2.5,0.6,4.4,1.7,5.7c1.2,1.2,3,1.9,5.4,1.9c3.2,0,5.6-0.9,7.1-2.7s2.3-4.7,2.3-8.7v-16.3
			h4.7v31h-3.9l-0.7-4.2h-0.3c-1,1.5-2.3,2.7-4,3.5s-3.7,1.2-5.8,1.2c-3.8,0-6.6-0.9-8.5-2.7c-1.9-1.8-2.8-4.7-2.8-8.6v-20.2
			L267.5,229.4L267.5,229.4z"/>
		<path class="st0" d="M318.7,251.9c0,2.9-1.1,5.1-3.2,6.7c-2.2,1.6-5.2,2.4-9.1,2.4c-4.1,0-7.3-0.7-9.6-2v-4.4
			c1.5,0.8,3.1,1.4,4.8,1.8c1.7,0.4,3.4,0.7,4.9,0.7c2.5,0,4.3-0.4,5.7-1.2c1.3-0.8,2-2,2-3.6c0-1.2-0.5-2.2-1.6-3.1
			c-1-0.9-3.1-1.9-6.1-3c-2.9-1.1-4.9-2-6.2-2.8c-1.2-0.8-2.1-1.7-2.7-2.7s-0.9-2.2-0.9-3.7c0-2.5,1-4.5,3.1-6s4.9-2.2,8.5-2.2
			c3.3,0,6.6,0.7,9.8,2l-1.7,3.8c-3.1-1.3-5.9-1.9-8.5-1.9c-2.2,0-3.9,0.3-5,1s-1.7,1.7-1.7,2.9c0,0.8,0.2,1.5,0.6,2.1
			s1.1,1.1,2.1,1.7c0.9,0.5,2.8,1.3,5.4,2.3c3.7,1.3,6.2,2.7,7.5,4C318.1,248.2,318.7,249.9,318.7,251.9z"/>
		<path class="st0" d="M336.4,257.1c0.8,0,1.6-0.1,2.4-0.2s1.4-0.2,1.8-0.4v3.6c-0.5,0.2-1.3,0.4-2.3,0.6s-1.9,0.2-2.7,0.2
			c-6,0-9-3.2-9-9.5V233h-4.4v-2.3l4.4-2l2-6.6h2.7v7.2h9v3.7h-9v18.3c0,1.9,0.4,3.3,1.3,4.3C333.7,256.6,334.9,257.1,336.4,257.1z"
			/>
	</g>
	<g>
		<path class="st0" d="M104.5,280.7c0,1.2-0.4,2-1.2,2.7c-0.8,0.6-1.9,0.9-3.4,0.9h-1.3v4.5h-1.3v-11.4h3
			C103.1,277.4,104.5,278.5,104.5,280.7z M98.6,283.2h1.2c1.2,0,2-0.2,2.6-0.6c0.5-0.4,0.8-1,0.8-1.8s-0.2-1.3-0.7-1.7
			s-1.3-0.6-2.3-0.6h-1.5v4.7H98.6z"/>
		<path class="st0" d="M111.4,280.1c0.4,0,0.7,0,1,0.1l-0.2,1.2c-0.4-0.1-0.7-0.1-0.9-0.1c-0.7,0-1.3,0.3-1.8,0.8s-0.7,1.3-0.7,2.1
			v4.6h-1.3v-8.6h1.1l0.1,1.6h0.1c0.3-0.6,0.7-1,1.1-1.3C110.3,280.2,110.8,280.1,111.4,280.1z"/>
		<path class="st0" d="M114.6,277.9c0-0.3,0.1-0.5,0.2-0.7c0.1-0.1,0.3-0.2,0.5-0.2s0.4,0.1,0.5,0.2s0.2,0.4,0.2,0.6
			c0,0.3-0.1,0.5-0.2,0.7c-0.2,0.1-0.3,0.2-0.5,0.2s-0.4-0.1-0.5-0.2S114.6,278.2,114.6,277.9z M116,288.8h-1.3v-8.6h1.3V288.8z"/>
		<path class="st0" d="M121.3,288.8l-3.2-8.6h1.4l1.8,5.1c0.4,1.2,0.7,2,0.7,2.3h0.1c0.1-0.3,0.2-0.8,0.5-1.7c0.3-0.9,1-2.8,2.1-5.7
			h1.4l-3.3,8.6C122.8,288.8,121.3,288.8,121.3,288.8z"/>
		<path class="st0" d="M133.5,288.8l-0.3-1.2h-0.1c-0.4,0.5-0.9,0.9-1.3,1.1c-0.4,0.2-1,0.3-1.6,0.3c-0.8,0-1.5-0.2-2-0.7
			s-0.7-1.1-0.7-1.9c0-1.7,1.4-2.6,4.1-2.7h1.5v-0.5c0-0.7-0.1-1.2-0.4-1.5s-0.8-0.5-1.4-0.5c-0.7,0-1.5,0.2-2.4,0.7l-0.4-1
			c0.4-0.2,0.9-0.4,1.4-0.5s1-0.2,1.5-0.2c1,0,1.8,0.2,2.3,0.7s0.7,1.2,0.7,2.2v5.8L133.5,288.8L133.5,288.8L133.5,288.8z
			 M130.5,287.9c0.8,0,1.4-0.2,1.9-0.7c0.5-0.4,0.7-1.1,0.7-1.9v-0.8l-1.3,0.1c-1,0-1.8,0.2-2.2,0.5c-0.5,0.3-0.7,0.7-0.7,1.3
			c0,0.5,0.1,0.8,0.4,1.1C129.6,287.8,130,287.9,130.5,287.9z"/>
		<path class="st0" d="M141.2,289c-1.2,0-2.2-0.4-2.9-1.1c-0.7-0.8-1-1.8-1-3.2c0-1.4,0.3-2.5,1-3.3s1.7-1.2,2.9-1.2
			c0.4,0,0.8,0,1.2,0.1s0.7,0.2,1,0.3l-0.4,1.1c-0.3-0.1-0.6-0.2-0.9-0.3s-0.6-0.1-0.9-0.1c-1.7,0-2.6,1.1-2.6,3.3
			c0,1.1,0.2,1.9,0.6,2.4s1.1,0.8,1.9,0.8c0.7,0,1.4-0.2,2.2-0.5v1.1C142.8,288.8,142.1,289,141.2,289z"/>
		<path class="st0" d="M144.8,280.3h1.4l1.9,4.9c0.4,1.1,0.7,1.9,0.8,2.4h0.1c0.1-0.3,0.2-0.7,0.4-1.4c0.2-0.6,0.9-2.6,2.1-5.9h1.4
			l-3.7,9.8c-0.4,1-0.8,1.6-1.3,2.1s-1.1,0.6-1.8,0.6c-0.4,0-0.8,0-1.2-0.1v-1c0.3,0.1,0.6,0.1,1,0.1c0.9,0,1.5-0.5,1.9-1.5l0.5-1.2
			L144.8,280.3z"/>
		<path class="st0" d="M165.1,288.8l-3.9-10.1h-0.1c0.1,0.8,0.1,1.8,0.1,2.9v7.3H160v-11.5h2l3.6,9.4h0.1l3.6-9.4h2v11.4H170v-7.4
			c0-0.8,0-1.8,0.1-2.8H170l-3.9,10.2H165.1z"/>
		<path class="st0" d="M180.2,288.8l-0.3-1.2h-0.1c-0.4,0.5-0.9,0.9-1.3,1.1s-1,0.3-1.6,0.3c-0.8,0-1.5-0.2-2-0.7s-0.7-1.1-0.7-1.9
			c0-1.7,1.4-2.6,4.1-2.7h1.5v-0.5c0-0.7-0.1-1.2-0.4-1.5s-0.8-0.5-1.4-0.5c-0.7,0-1.5,0.2-2.4,0.7l-0.4-1c0.4-0.2,0.9-0.4,1.4-0.5
			s1-0.2,1.5-0.2c1,0,1.8,0.2,2.3,0.7s0.7,1.2,0.7,2.2v5.8L180.2,288.8L180.2,288.8L180.2,288.8z M177.3,287.9
			c0.8,0,1.4-0.2,1.9-0.7c0.5-0.4,0.7-1.1,0.7-1.9v-0.8l-1.3,0.1c-1,0-1.8,0.2-2.2,0.5c-0.5,0.3-0.7,0.7-0.7,1.3
			c0,0.5,0.1,0.8,0.4,1.1S176.8,287.9,177.3,287.9z"/>
		<path class="st0" d="M190.5,288.8v-5.5c0-0.7-0.2-1.2-0.5-1.6s-0.8-0.5-1.5-0.5c-0.9,0-1.6,0.2-2,0.7s-0.6,1.3-0.6,2.4v4.5h-1.3
			v-8.6h1.1l0.2,1.2h0.1c0.3-0.4,0.6-0.7,1.1-1c0.5-0.2,1-0.3,1.6-0.3c1,0,1.8,0.2,2.3,0.7s0.8,1.3,0.8,2.4v5.6
			C191.8,288.8,190.5,288.8,190.5,288.8z"/>
		<path class="st0" d="M200.4,288.8l-0.3-1.2l0,0c-0.4,0.5-0.9,0.9-1.3,1.1s-1,0.3-1.6,0.3c-0.8,0-1.5-0.2-2-0.7s-0.7-1.1-0.7-1.9
			c0-1.7,1.4-2.6,4.1-2.7h1.5v-0.5c0-0.7-0.1-1.2-0.4-1.5s-0.8-0.5-1.4-0.5c-0.7,0-1.5,0.2-2.4,0.7l-0.4-1c0.4-0.2,0.9-0.4,1.4-0.5
			s1-0.2,1.5-0.2c1,0,1.8,0.2,2.3,0.7s0.7,1.2,0.7,2.2v5.8L200.4,288.8L200.4,288.8L200.4,288.8z M197.5,287.9
			c0.8,0,1.4-0.2,1.9-0.7c0.5-0.4,0.7-1.1,0.7-1.9v-0.8l-1.3,0.1c-1,0-1.8,0.2-2.2,0.5c-0.5,0.3-0.7,0.7-0.7,1.3
			c0,0.5,0.1,0.8,0.4,1.1C196.6,287.8,197,287.9,197.5,287.9z"/>
		<path class="st0" d="M211.8,280.3v0.8l-1.6,0.2c0.1,0.2,0.3,0.4,0.4,0.7s0.2,0.6,0.2,1c0,0.8-0.3,1.5-0.9,2s-1.4,0.8-2.4,0.8
			c-0.3,0-0.5,0-0.7-0.1c-0.6,0.3-0.8,0.7-0.8,1.1c0,0.2,0.1,0.4,0.3,0.5c0.2,0.1,0.5,0.2,1,0.2h1.5c0.9,0,1.6,0.2,2.1,0.6
			s0.7,1,0.7,1.7c0,0.9-0.4,1.7-1.1,2.2s-1.9,0.7-3.3,0.7c-1.1,0-2-0.2-2.6-0.6s-0.9-1-0.9-1.8c0-0.5,0.2-1,0.5-1.4s0.8-0.6,1.4-0.8
			c-0.2-0.1-0.4-0.3-0.6-0.5c-0.1-0.2-0.2-0.5-0.2-0.7c0-0.3,0.1-0.6,0.2-0.8s0.4-0.5,0.8-0.7c-0.4-0.2-0.8-0.5-1.1-0.9
			c-0.3-0.4-0.4-0.9-0.4-1.5c0-0.9,0.3-1.7,0.8-2.2s1.4-0.8,2.4-0.8c0.4,0,0.9,0.1,1.2,0.2L211.8,280.3L211.8,280.3z M204.9,290.3
			c0,0.5,0.2,0.8,0.6,1.1c0.4,0.3,1,0.4,1.7,0.4c1.1,0,1.9-0.2,2.4-0.5s0.8-0.8,0.8-1.3s-0.1-0.8-0.4-1s-0.8-0.3-1.6-0.3h-1.6
			c-0.6,0-1,0.1-1.4,0.4S204.9,289.7,204.9,290.3z M205.6,283c0,0.6,0.2,1.1,0.5,1.4s0.8,0.5,1.4,0.5c1.3,0,1.9-0.6,1.9-1.8
			c0-1.3-0.6-1.9-1.9-1.9c-0.6,0-1.1,0.2-1.4,0.5S205.6,282.3,205.6,283z"/>
		<path class="st0" d="M217.9,289c-1.3,0-2.3-0.4-3-1.2c-0.7-0.8-1.1-1.8-1.1-3.2s0.3-2.5,1-3.3s1.6-1.2,2.7-1.2s1.9,0.4,2.5,1.1
			s0.9,1.6,0.9,2.8v0.8h-5.8c0,1,0.3,1.8,0.8,2.3s1.2,0.8,2,0.8c0.9,0,1.8-0.2,2.7-0.6v1.2c-0.5,0.2-0.9,0.3-1.3,0.4
			C218.9,289,218.4,289,217.9,289z M217.5,281.2c-0.7,0-1.2,0.2-1.6,0.7c-0.4,0.4-0.6,1.1-0.7,1.9h4.5c0-0.8-0.2-1.4-0.5-1.9
			C218.7,281.4,218.2,281.2,217.5,281.2z"/>
		<path class="st0" d="M234.9,288.8v-5.6c0-0.7-0.1-1.2-0.4-1.5s-0.7-0.5-1.4-0.5c-0.8,0-1.4,0.2-1.8,0.7s-0.6,1.2-0.6,2.1v4.8h-1.3
			v-5.6c0-0.7-0.1-1.2-0.4-1.5s-0.7-0.5-1.4-0.5c-0.8,0-1.4,0.2-1.8,0.7s-0.6,1.3-0.6,2.4v4.5h-1.3v-8.6h1.1l0.2,1.2h0.1
			c0.2-0.4,0.6-0.7,1-1s0.9-0.4,1.5-0.4c1.3,0,2.2,0.5,2.6,1.5h0.1c0.3-0.4,0.6-0.8,1.1-1.1c0.5-0.3,1-0.4,1.7-0.4
			c1,0,1.7,0.2,2.2,0.7s0.7,1.3,0.7,2.4v5.6L234.9,288.8L234.9,288.8z"/>
		<path class="st0" d="M243.2,289c-1.3,0-2.3-0.4-3-1.2c-0.7-0.8-1.1-1.8-1.1-3.2s0.3-2.5,1-3.3s1.6-1.2,2.7-1.2s1.9,0.4,2.5,1.1
			s0.9,1.6,0.9,2.8v0.8h-5.9c0,1,0.3,1.8,0.8,2.3s1.2,0.8,2,0.8c0.9,0,1.8-0.2,2.7-0.6v1.2c-0.5,0.2-0.9,0.3-1.3,0.4
			C244.1,289,243.7,289,243.2,289z M242.8,281.2c-0.7,0-1.2,0.2-1.6,0.7c-0.4,0.4-0.6,1.1-0.7,1.9h4.5c0-0.8-0.2-1.4-0.5-1.9
			C244,281.4,243.5,281.2,242.8,281.2z"/>
		<path class="st0" d="M255.1,288.8v-5.5c0-0.7-0.2-1.2-0.5-1.6s-0.8-0.5-1.5-0.5c-0.9,0-1.6,0.2-2,0.7s-0.6,1.3-0.6,2.4v4.5h-1.3
			v-8.6h1.1l0.2,1.2h0.1c0.3-0.4,0.6-0.7,1.1-1c0.5-0.2,1-0.3,1.6-0.3c1,0,1.8,0.2,2.3,0.7s0.8,1.3,0.8,2.4v5.6
			C256.4,288.8,255.1,288.8,255.1,288.8z"/>
		<path class="st0" d="M262.5,287.9c0.2,0,0.5,0,0.7-0.1c0.2,0,0.4-0.1,0.5-0.1v1c-0.1,0.1-0.3,0.1-0.6,0.2s-0.5,0.1-0.7,0.1
			c-1.7,0-2.5-0.9-2.5-2.6v-5.1h-1.2v-0.6l1.2-0.5l0.5-1.8h0.8v2h2.5v1h-2.5v5c0,0.5,0.1,0.9,0.4,1.2
			C261.8,287.8,262.1,287.9,262.5,287.9z"/>
		<path class="st0" d="M277.7,285.8c0,1-0.4,1.8-1.1,2.4s-1.7,0.8-3,0.8c-1.4,0-2.4-0.2-3.1-0.5v-1.3c0.5,0.2,1,0.4,1.5,0.5
			c0.6,0.1,1.1,0.2,1.6,0.2c0.9,0,1.6-0.2,2-0.5s0.7-0.8,0.7-1.4c0-0.4-0.1-0.7-0.2-1c-0.2-0.3-0.4-0.5-0.8-0.7s-0.9-0.5-1.7-0.7
			c-1.1-0.4-1.8-0.8-2.3-1.4c-0.5-0.5-0.7-1.2-0.7-2c0-0.9,0.3-1.6,1-2.1s1.5-0.8,2.6-0.8s2.2,0.2,3.1,0.6l-0.4,1.2
			c-0.9-0.4-1.9-0.6-2.8-0.6c-0.7,0-1.3,0.2-1.6,0.5c-0.4,0.3-0.6,0.7-0.6,1.3c0,0.4,0.1,0.7,0.2,1s0.4,0.5,0.7,0.7s0.9,0.4,1.6,0.7
			c1.2,0.4,2,0.9,2.5,1.4C277.4,284.4,277.7,285,277.7,285.8z"/>
		<path class="st0" d="M287.9,284.5c0,1.4-0.4,2.5-1.1,3.3s-1.7,1.2-2.9,1.2c-0.8,0-1.4-0.2-2-0.5s-1.1-0.9-1.4-1.5
			s-0.5-1.5-0.5-2.4c0-1.4,0.3-2.5,1-3.3s1.7-1.2,2.9-1.2c1.2,0,2.1,0.4,2.9,1.2S287.9,283.2,287.9,284.5z M281.4,284.5
			c0,1.1,0.2,1.9,0.7,2.5c0.4,0.6,1.1,0.9,1.9,0.9s1.5-0.3,1.9-0.9s0.7-1.4,0.7-2.5s-0.2-1.9-0.7-2.5c-0.4-0.6-1.1-0.8-1.9-0.8
			s-1.5,0.3-1.9,0.8C281.6,282.6,281.4,283.4,281.4,284.5z"/>
		<path class="st0" d="M294.8,281.3h-2.2v7.6h-1.3v-7.6h-1.5v-0.6l1.5-0.5v-0.5c0-2.1,0.9-3.2,2.8-3.2c0.5,0,1,0.1,1.6,0.3l-0.3,1
			c-0.5-0.2-0.9-0.2-1.3-0.2c-0.5,0-0.9,0.2-1.1,0.5s-0.4,0.8-0.4,1.6v0.6h2.2L294.8,281.3L294.8,281.3z"/>
		<path class="st0" d="M299.8,287.9c0.2,0,0.5,0,0.7-0.1c0.2,0,0.4-0.1,0.5-0.1v1c-0.1,0.1-0.3,0.1-0.6,0.2s-0.5,0.1-0.7,0.1
			c-1.7,0-2.5-0.9-2.5-2.6v-5.1H296v-0.6l1.2-0.5l0.5-1.8h0.8v2h2.5v1h-2.5v5c0,0.5,0.1,0.9,0.4,1.2
			C299.1,287.8,299.4,287.9,299.8,287.9z"/>
		<path class="st0" d="M310.4,288.8l-1.6-5c-0.1-0.3-0.3-1-0.6-2.1h-0.1c-0.2,0.9-0.4,1.6-0.5,2.1l-1.6,5h-1.5l-2.3-8.6h1.4
			c0.6,2.2,1,3.8,1.3,4.9s0.5,1.9,0.5,2.3h0.1c0.1-0.3,0.1-0.7,0.3-1.2c0.1-0.5,0.2-0.8,0.3-1.1l1.6-4.9h1.4l1.5,4.9
			c0.3,0.9,0.5,1.6,0.6,2.3h0.1c0-0.2,0.1-0.5,0.2-0.9s0.6-2.5,1.6-6.3h1.3l-2.4,8.6C312,288.8,310.4,288.8,310.4,288.8z"/>
		<path class="st0" d="M321.9,288.8l-0.3-1.2h-0.1c-0.4,0.5-0.9,0.9-1.3,1.1s-1,0.3-1.6,0.3c-0.8,0-1.5-0.2-2-0.7s-0.7-1.1-0.7-1.9
			c0-1.7,1.4-2.6,4.1-2.7h1.5v-0.5c0-0.7-0.1-1.2-0.4-1.5s-0.8-0.5-1.4-0.5c-0.7,0-1.5,0.2-2.4,0.7l-0.4-1c0.4-0.2,0.9-0.4,1.4-0.5
			s1-0.2,1.5-0.2c1,0,1.8,0.2,2.3,0.7s0.7,1.2,0.7,2.2v5.8L321.9,288.8L321.9,288.8L321.9,288.8z M318.9,287.9
			c0.8,0,1.4-0.2,1.9-0.7c0.5-0.4,0.7-1.1,0.7-1.9v-0.8l-1.3,0.1c-1,0-1.8,0.2-2.2,0.5c-0.5,0.3-0.7,0.7-0.7,1.3
			c0,0.5,0.1,0.8,0.4,1.1C318,287.8,318.4,287.9,318.9,287.9z"/>
		<path class="st0" d="M330.1,280.1c0.4,0,0.7,0,1,0.1l-0.2,1.2c-0.4-0.1-0.7-0.1-0.9-0.1c-0.7,0-1.3,0.3-1.8,0.8s-0.7,1.3-0.7,2.1
			v4.6h-1.3v-8.6h1.1l0.1,1.6h0.1c0.3-0.6,0.7-1,1.1-1.3C329.1,280.2,329.6,280.1,330.1,280.1z"/>
		<path class="st0" d="M337.1,289c-1.3,0-2.3-0.4-3-1.2c-0.7-0.8-1.1-1.8-1.1-3.2s0.3-2.5,1-3.3s1.6-1.2,2.7-1.2s1.9,0.4,2.5,1.1
			s0.9,1.6,0.9,2.8v0.8h-5.9c0,1,0.3,1.8,0.8,2.3s1.2,0.8,2,0.8c0.9,0,1.8-0.2,2.7-0.6v1.2c-0.5,0.2-0.9,0.3-1.3,0.4
			C338,289,337.7,289,337.1,289z M336.7,281.2c-0.7,0-1.2,0.2-1.6,0.7c-0.4,0.4-0.6,1.1-0.7,1.9h4.5c0-0.8-0.2-1.4-0.5-1.9
			C337.9,281.4,337.4,281.2,336.7,281.2z"/>
	</g>
</g>
</svg>
